HIERARCHY
ROOT Hips
{
	OFFSET -0.179506 -22.333345 2.821913
	CHANNELS 6 Xposition Yposition Zposition Zrotation Yrotation Xrotation 
	JOINT LeftUpLeg
	{
		OFFSET 6.951974 -9.140623 -0.681533
		CHANNELS 3 Zrotation Yrotation Xrotation
		JOINT LeftLeg
		{
			OFFSET 3.427654 -37.519855 -0.449580
			CHANNELS 3 Zrotation Yrotation Xrotation
			JOINT LeftFoot
			{
				OFFSET -1.359570 -39.796059 -4.369333
				CHANNELS 3 Zrotation Yrotation Xrotation
				JOINT LeftToe
				{
					OFFSET 2.635814 -5.579078 11.928840
					CHANNELS 3 Zrotation Yrotation Xrotation
					End Site
					{
						OFFSET 0.000000 0.000000 0.000000
					}
				}
			}
		}
	}
	JOINT RightUpLeg
	{
		OFFSET -6.767048 -9.052170 -0.431982
		CHANNELS 3 Zrotation Yrotation Xrotation
		JOINT RightLeg
		{
			OFFSET -3.829005 -38.256897 -0.885003
			CHANNELS 3 Zrotation Yrotation Xrotation
			JOINT RightFoot
			{
				OFFSET 1.577377 -39.841461 -4.231180
				CHANNELS 3 Zrotation Yrotation Xrotation
				JOINT RightToe
				{
					OFFSET -2.537174 -4.814398 12.334795
					CHANNELS 3 Zrotation Yrotation Xrotation
					End Site
					{
						OFFSET 0.000000 0.000000 0.000000
					}
				}
			}
		}
	}
	JOINT Spine
	{
		OFFSET -0.253288 10.896323 -2.669631
		CHANNELS 3 Zrotation Yrotation Xrotation
		JOINT Spine1
		{
			OFFSET 0.548704 13.518043 0.109247
			CHANNELS 3 Zrotation Yrotation Xrotation
			JOINT Spine2
			{
				OFFSET 0.145701 5.292222 2.542457
				CHANNELS 3 Zrotation Yrotation Xrotation
				JOINT Neck
				{
					OFFSET -0.277840 21.387037 -4.285703
					CHANNELS 3 Zrotation Yrotation Xrotation
					JOINT Head
					{
						OFFSET 0.515184 6.496960 5.134897
						CHANNELS 3 Zrotation Yrotation Xrotation
						End Site
						{
							OFFSET 0.000000 0.000000 0.000000
						}
					}
				}
				JOINT LeftShoulder
				{
					OFFSET 7.884473 12.174932 -3.408961
					CHANNELS 3 Zrotation Yrotation Xrotation
					JOINT LeftArm
					{
						OFFSET 9.097692 3.046888 -0.886815
						CHANNELS 3 Zrotation Yrotation Xrotation
						JOINT LeftForeArm
						{
							OFFSET 25.961220 -1.277207 -2.745643
							CHANNELS 3 Zrotation Yrotation Xrotation
							JOINT LeftHand
							{
								OFFSET 24.923361 0.898606 -0.117091
								CHANNELS 3 Zrotation Yrotation Xrotation
								End Site
								{
									OFFSET 0.000000 0.000000 0.000000
								}
							}
						}
					}
				}
				JOINT RightShoulder
				{
					OFFSET -8.175920 11.883285 -3.861528
					CHANNELS 3 Zrotation Yrotation Xrotation
					JOINT RightArm
					{
						OFFSET -9.601238 3.255117 -0.914307
						CHANNELS 3 Zrotation Yrotation Xrotation
						JOINT RightForeArm
						{
							OFFSET -25.374195 -1.332924 -2.140099
							CHANNELS 3 Zrotation Yrotation Xrotation
							JOINT RightHand
							{
								OFFSET -25.529810 0.777228 -0.555919
								CHANNELS 3 Zrotation Yrotation Xrotation
								End Site
								{
									OFFSET 0.000000 0.000000 0.000000
								}
							}
						}
					}
				}
			}
		}
	}
}
MOTION
Frames: 18
Frame Time: 0.033333
11.505567 50.717442 82.704582 3.648825 -20.496239 83.051553 -4.768337 8.761408 16.332955 -10.696381 -5.596356 44.642721 -1.507693 21.055628 -41.413612 nan nan nan -0.455202 -28.564562 -45.176898 -2.350512 -49.486531 27.303146 0.580240 -32.150737 -41.240557 nan nan nan 3.289387 -0.447326 32.785885 4.893615 6.321457 9.563848 4.351883 3.195294 -4.855857 -7.954378 3.081620 18.807983 -3.059990 5.484209 -21.068358 -9.806773 11.621735 5.763768 -60.877255 -4.587612 17.764786 -7.126382 -19.633675 8.962546 -11.489475 -22.919032 -11.986100 6.748065 4.384908 5.550755 41.983178 5.427668 -1.990758 -5.017948 6.627002 -19.051606 -5.540201 17.708532 -25.873979 
11.336012 51.204517 83.176292 5.116055 -20.961655 82.327406 -4.314490 8.680104 15.906266 -11.357409 -6.112108 44.884660 -1.372728 20.108048 -40.022559 nan nan nan -0.994322 -28.962773 -44.140666 -1.051296 -48.529907 24.465498 -0.005090 -31.710565 -39.998358 nan nan nan 2.900836 0.263624 32.370562 4.301392 6.482068 10.239808 4.062051 3.372801 -4.921678 -7.936779 3.425295 19.129740 -3.182202 5.868929 -21.136057 -10.373411 11.763610 5.665823 -60.189278 -3.933285 17.865841 -7.629112 -19.769394 8.618482 -11.477826 -23.128574 -13.367514 6.448307 4.323925 5.760803 42.411264 5.345027 -1.793174 -4.565195 6.654148 -18.705394 -5.814981 17.611820 -26.262542 
11.243831 51.605713 83.649033 6.746969 -21.274765 81.614677 -3.826672 8.543977 15.585145 -11.981547 -6.945055 44.871033 -1.286328 19.114425 -38.578614 nan nan nan -1.731099 -29.322724 -43.099437 -0.328200 -47.803419 22.366277 -0.627512 -31.092810 -38.639056 nan nan nan 2.702448 0.772288 31.693169 3.891824 6.621735 11.372727 3.647226 3.531721 -5.411847 -7.746894 3.885868 19.441253 -3.342876 6.132135 -20.921999 -11.032117 12.216222 5.385918 -59.373013 -3.136399 18.230589 -8.622602 -19.726214 9.092671 -11.383378 -23.128178 -13.085166 6.532263 4.049652 5.760547 42.169374 5.214165 -1.571103 -4.029940 6.562830 -18.736371 -6.286259 17.714052 -26.250497 
11.167501 51.970390 84.120651 8.429409 -21.556255 80.836052 -3.313254 8.483996 15.470261 -12.688371 -8.140514 44.612433 -1.295453 18.252895 -37.222267 nan nan nan -2.603538 -29.679527 -42.109013 -0.123227 -47.355717 21.020265 -1.304018 -30.582903 -37.511114 nan nan nan 2.389647 1.214271 31.069784 3.578639 6.843861 12.344214 3.359661 3.690822 -5.787291 -7.420314 4.393842 19.683242 -3.575742 6.394024 -20.547424 -11.545221 12.629226 5.229287 -58.711295 -2.370731 18.519555 -9.672794 -19.370000 10.240282 -11.004307 -23.321336 -11.934435 6.611097 3.845419 5.752042 41.741852 4.933692 -1.404406 -3.348736 6.513678 -18.626292 -6.698807 17.912258 -26.147515 
11.080281 52.343525 84.576538 10.000620 -21.935923 80.305655 -2.926647 8.349942 15.149074 -13.447729 -9.220889 44.313395 -1.354312 17.373441 -35.985854 nan nan nan -3.307621 -29.949017 -41.468885 0.116059 -46.782788 19.524479 -1.560392 -30.206896 -36.733774 nan nan nan 1.905063 1.785063 30.268049 3.253920 7.079231 12.990391 3.221759 3.812136 -5.911831 -7.309695 4.798480 19.992372 -3.749477 6.884860 -20.269407 -11.951758 12.901139 5.287307 -58.148121 -1.530682 18.630933 -10.181042 -19.295403 11.127029 -11.108736 -23.244553 -11.152813 6.535784 3.879436 6.185418 41.500337 4.405966 -0.972799 -2.611954 7.073015 -18.094940 -6.179759 18.102226 -26.497643 
10.965665 52.709412 85.049477 11.593598 -22.308068 79.649599 -2.534504 8.089642 15.108886 -14.153617 -10.426669 43.740206 -1.503815 16.286498 -34.742991 nan nan nan -4.055793 -30.251929 -40.709961 0.201642 -46.210878 18.152261 -1.414225 -30.002373 -35.885057 nan nan nan 1.521409 2.275989 29.450885 2.854334 7.311730 13.601144 3.018233 3.803962 -5.614826 -7.233019 5.361710 19.951398 -3.837081 7.499614 -20.098259 -12.182414 13.275943 5.179461 -57.728899 -0.763000 18.803864 -10.507879 -19.488580 11.684192 -11.046283 -22.924810 -11.050722 6.611144 3.867783 6.931498 41.273554 4.570637 -0.788532 -2.170494 7.453199 -18.050138 -6.053002 18.052606 -26.717002 
10.825991 53.030979 85.539291 13.261103 -22.490391 78.730791 -1.882992 7.789340 15.535305 -14.968523 -12.066720 42.872370 -2.042622 15.172080 -33.591005 nan nan nan -4.942084 -30.549029 -39.554194 0.076678 -45.901707 17.055084 -1.279213 -29.840135 -34.602107 nan nan nan 1.208731 2.585074 28.732112 2.536764 7.524333 14.359248 2.851625 3.976816 -5.171804 -7.073611 5.954397 19.733906 -4.047731 7.767450 -19.925103 -12.417601 13.605760 4.878552 -57.401920 -0.030018 19.049576 -10.839384 -19.505623 12.354326 -10.184702 -22.898440 -11.259219 6.833129 3.930628 7.238493 40.915442 4.618934 -0.982255 -1.951700 7.481331 -18.281742 -6.641884 17.910355 -26.560109 
10.690001 53.297935 86.044220 15.013367 -22.455334 78.056526 -1.002248 7.294528 15.742200 -15.895195 -13.685371 41.932401 -2.805465 14.154717 -32.505497 nan nan nan -5.839125 -30.734423 -38.497563 0.268245 -45.795074 15.892634 -1.302837 -29.632721 -33.364152 nan nan nan 1.009152 3.049146 28.191194 2.467551 7.783061 14.873632 2.674968 4.289941 -5.527997 -6.785366 6.356845 19.927252 -4.171647 7.750626 -19.452438 -12.686552 13.829194 5.000100 -56.873780 0.696622 19.342615 -11.243123 -19.320333 13.299742 -9.699183 -23.106419 -11.034180 7.125249 3.626541 6.936708 40.477059 3.606900 -1.044340 -1.631346 7.630711 -18.162674 -6.917176 18.018479 -26.546440 
10.539766 53.591309 86.548073 16.697363 -22.368291 77.604732 -0.129392 6.823964 15.686624 -16.670928 -15.211394 41.016278 -3.432670 13.109708 -31.396073 nan nan nan -6.560562 -30.895780 -37.777226 0.557340 -45.579086 14.773617 -1.472724 -29.470354 -31.985834 nan nan nan 0.907320 3.549203 27.470240 2.435692 8.127185 15.203196 2.529940 4.436332 -5.800402 -6.677264 6.740331 20.248278 -4.158744 7.851178 -18.925461 -12.978889 13.858467 5.298538 -56.314526 1.495130 19.367847 -11.714320 -19.213430 14.100588 -9.946469 -23.292040 -10.674606 7.227219 3.425905 6.833076 40.126105 2.600046 -1.098787 -1.182321 7.782186 -17.843373 -6.989762 18.260715 -26.681775 
10.404825 53.916485 87.031898 18.312896 -22.338004 77.083656 0.590693 6.397715 15.747587 -17.384434 -16.770481 40.049373 -3.787180 12.070058 -30.448957 nan nan nan -7.478523 -31.021032 -37.111578 0.410520 -45.441397 14.197183 -1.763789 -29.483143 -30.085125 nan nan nan 0.768285 3.918842 26.935139 2.352217 8.569790 15.342071 2.347869 4.560617 -5.710850 -6.544132 7.105198 20.480099 -4.248746 7.894791 -18.736727 -13.117687 14.189415 5.229615 -55.902312 2.239204 19.460580 -12.041445 -19.037944 14.769677 -10.537532 -23.708819 -10.893320 7.310369 2.966246 6.606613 39.893875 1.944921 -1.067158 -0.995609 8.020619 -17.253935 -6.454777 18.496922 -26.294426 
10.295917 54.223705 87.516685 20.086807 -22.287102 76.588155 1.137319 5.851495 15.747312 -18.034640 -18.349291 39.036229 -4.116499 11.227595 -29.705231 nan nan nan -8.806886 -31.048002 -36.395948 -0.005535 -45.598740 14.110854 -2.321708 -29.597720 -27.855795 nan nan nan 0.540629 4.123355 26.136803 2.366135 8.862940 15.836994 2.123990 4.804127 -5.623377 -6.259813 7.582706 20.606600 -4.439113 8.060622 -18.810558 -13.160214 14.918821 4.876236 -55.595078 2.809330 19.732900 -12.214933 -18.867940 15.347120 -10.943262 -24.119113 -11.361497 7.617285 2.221080 6.205496 39.544861 1.740260 -1.096860 -1.195011 8.027267 -17.108889 -5.719056 18.626039 -25.615334 
10.176030 54.523331 87.984413 22.070335 -22.189793 76.314942 1.633301 5.221846 15.343268 -18.576458 -19.660162 38.111747 -4.560669 10.393843 -28.828793 nan nan nan -10.146438 -31.302357 -35.961365 -0.297041 -45.689718 14.265409 -3.187332 -29.440657 -25.309750 nan nan nan 0.370672 4.303428 24.871322 2.452407 8.972977 16.540597 1.783908 4.966405 -5.660816 -5.822312 8.252340 20.656767 -4.501772 8.203582 -18.500373 -13.074367 15.567796 4.749107 -55.262735 3.353310 20.178431 -12.494720 -18.926951 16.354915 -11.168135 -24.117051 -11.196677 8.190741 1.451777 6.111911 39.125652 1.860902 -1.266044 -1.549271 7.808937 -17.258365 -5.319408 18.554127 -24.712262 
10.046562 54.813133 88.458076 24.137054 -22.037906 76.127471 2.163456 4.687513 14.754013 -19.014417 -20.865211 37.280508 -4.939455 9.623926 -27.843474 nan nan nan -11.524202 -31.737495 -35.573388 -0.438804 -45.332089 14.785985 -3.206697 -28.949445 -22.877294 nan nan nan 0.649274 4.562957 23.505191 2.422654 9.123982 17.110022 1.313935 4.962927 -5.536571 -5.721141 8.638190 20.769984 -4.346508 8.167389 -18.365141 -13.091032 15.477168 4.993672 -54.703034 3.727783 20.362290 -13.039167 -18.857811 16.955147 -10.905328 -23.500356 -11.245049 8.667260 0.929212 6.157723 39.056404 1.430922 -1.628383 -1.857310 7.998777 -17.092450 -5.555421 18.164632 -24.325987 
9.934522 55.098186 88.948189 26.215492 -21.717717 75.947436 2.836657 4.387075 14.074648 -19.198528 -21.877157 36.532668 -4.920337 8.817605 -26.954014 nan nan nan -13.053265 -32.145946 -34.984492 -0.484986 -44.601407 15.765513 -2.295922 -27.955096 -20.578831 nan nan nan 0.643433 4.810672 22.680787 2.552399 9.137132 17.008153 1.232231 5.161686 -5.633118 -5.738685 8.888974 21.100131 -4.650689 8.367767 -18.087556 -13.341529 15.720737 5.010271 -54.223128 4.437098 20.416285 -13.310324 -18.582738 17.227477 -10.555066 -23.425266 -12.239645 8.847494 0.580155 6.188420 38.740845 0.537326 -1.737446 -1.663608 8.447483 -16.837415 -5.675474 18.025410 -24.649223 
9.821723 55.361965 89.421669 28.293219 -21.346913 75.749605 3.443378 4.171867 13.425791 -19.096075 -22.662720 35.671790 -4.490453 8.197099 -25.999786 nan nan nan -14.808623 -32.715695 -34.301626 -0.301849 -43.410079 17.283086 -1.589990 -26.412610 -18.148556 nan nan nan 0.773764 5.044089 21.999676 2.639771 9.090814 16.554149 1.161321 5.339874 -5.531023 -5.793188 9.117579 21.449865 -5.124826 8.534325 -17.551208 -13.588043 15.846750 5.091117 -53.777251 5.308362 20.347835 -13.334768 -18.468321 17.580374 -10.659202 -23.662004 -13.262229 9.034300 0.317930 6.576090 38.422536 -0.404832 -1.918588 -1.610306 9.129802 -16.329476 -4.927594 18.056273 -24.381965 
9.683694 55.612537 89.863205 30.407866 -20.881686 75.624702 4.043786 3.934494 12.641327 -18.929569 -23.332577 34.854059 -3.776716 7.663696 -25.096248 nan nan nan -16.672762 -33.236351 -33.568517 0.128833 -41.871690 19.083741 -0.968647 -24.273957 -15.673656 nan nan nan 1.047259 5.234572 21.295182 2.732912 8.979816 16.154908 0.946390 5.442525 -5.562294 -5.733587 9.476162 21.859135 -5.603757 8.714999 -16.993458 -13.499594 16.075424 5.157093 -53.488586 6.229537 20.257504 -13.292829 -18.309037 18.129200 -10.871454 -23.425914 -13.639742 9.320121 -0.031195 7.048016 38.091199 -0.979638 -2.212324 -1.688012 9.424018 -15.998527 -4.023931 17.886867 -23.537650 
9.524494 55.822372 90.259796 32.617760 -20.314527 75.448083 4.691755 3.662804 11.887995 -18.782412 -24.160724 34.074360 -3.048594 7.068129 -24.493418 nan nan nan -18.644391 -33.731513 -32.614843 0.964090 -40.154851 20.963251 0.024799 -21.551047 -13.772514 nan nan nan 1.393009 5.383064 20.522551 2.865187 8.729798 16.110572 0.634623 5.531450 -5.834302 -5.493334 9.917745 22.168856 -5.942456 8.838858 -16.562008 -13.265300 16.442823 5.224355 -53.152590 7.019093 20.163304 -13.354735 -18.174003 19.092316 -10.795479 -23.824834 -13.618068 9.556279 -0.391459 7.591304 37.814028 -1.400466 -2.624061 -1.531939 9.689310 -15.703754 -3.310927 18.071838 -22.956795 
9.348932 56.013981 90.631714 34.741192 -19.644496 75.287009 5.425577 3.378798 11.169823 -18.672574 -25.099826 33.299340 -2.444031 6.571128 -23.933058 nan nan nan -20.554594 -34.170223 -31.646651 2.247116 -38.194121 22.908557 0.595323 -18.533557 -12.025624 nan nan nan 1.878529 5.561327 19.727750 3.027104 8.522244 16.044450 0.319383 5.649652 -5.949601 -5.295219 10.287161 22.590403 -6.252135 8.748206 -16.408054 -13.064476 16.772897 5.214291 -52.735705 7.601437 20.186911 -13.542788 -17.951686 20.082154 -10.554366 -24.475910 -14.010451 9.612645 -0.887574 7.893549 37.626399 -1.810802 -3.016636 -1.165169 9.938273 -15.498340 -2.819128 18.382977 -22.881721 
